<?xml version="1.0" encoding="UTF-8"?>
<!-- Generator: visioncortex VTracer -->
<svg id="svg" version="1.1" xmlns="http://www.w3.org/2000/svg" style="display: block; background: rgb(255, 255, 255);" viewBox="0 0 3000 3000"><path d="M0 0 C852.06 0 1704.12 0 2582 0 C2582 693.66 2582 1387.32 2582 2102 C1729.94 2102 877.88 2102 0 2102 C0 1408.34 0 714.68 0 0 Z M203 2 C203 18.83 203 35.66 203 53 C255.14 53 307.28 53 361 53 C361 56.63 361 60.26 361 64 C405.22 64 449.44 64 495 64 C495 43.54 495 23.08 495 2 C398.64 2 302.28 2 203 2 Z M1263 2 C1263 18.83 1263 35.66 1263 53 C1302.93 53 1342.86 53 1384 53 C1384 56.63 1384 60.26 1384 64 C1416.01 64 1448.02 64 1481 64 C1481 43.54 1481 23.08 1481 2 C1409.06 2 1337.12 2 1263 2 Z M1971 2 C1971 18.83 1971 35.66 1971 53 C2023.14 53 2075.28 53 2129 53 C2129 56.63 2129 60.26 2129 64 C2173.22 64 2217.44 64 2263 64 C2263 43.54 2263 23.08 2263 2 C2166.64 2 2070.28 2 1971 2 Z M203 54 C203 57.3 203 60.6 203 64 C254.81 64 306.62 64 360 64 C360 60.7 360 57.4 360 54 C308.19 54 256.38 54 203 54 Z M1263 54 C1263 57.3 1263 60.6 1263 64 C1302.6 64 1342.2 64 1383 64 C1383 60.7 1383 57.4 1383 54 C1343.4 54 1303.8 54 1263 54 Z M1971 54 C1971 57.3 1971 60.6 1971 64 C2022.81 64 2074.62 64 2128 64 C2128 60.7 2128 57.4 2128 54 C2076.19 54 2024.38 54 1971 54 Z M203 65 C203 68.3 203 71.6 203 75 C247.55 75 292.1 75 338 75 C338 71.7 338 68.4 338 65 C293.45 65 248.9 65 203 65 Z M339 65 C339 68.3 339 71.6 339 75 C390.48 75 441.96 75 495 75 C495 71.7 495 68.4 495 65 C443.52 65 392.04 65 339 65 Z M1263 65 C1263 68.3 1263 71.6 1263 75 C1295.34 75 1327.68 75 1361 75 C1361 71.7 1361 68.4 1361 65 C1328.66 65 1296.32 65 1263 65 Z M1362 65 C1362 68.3 1362 71.6 1362 75 C1401.27 75 1440.54 75 1481 75 C1481 71.7 1481 68.4 1481 65 C1441.73 65 1402.46 65 1362 65 Z M1971 65 C1971 68.3 1971 71.6 1971 75 C2015.55 75 2060.1 75 2106 75 C2106 71.7 2106 68.4 2106 65 C2061.45 65 2016.9 65 1971 65 Z M2107 65 C2107 68.3 2107 71.6 2107 75 C2158.48 75 2209.96 75 2263 75 C2263 71.7 2263 68.4 2263 65 C2211.52 65 2160.04 65 2107 65 Z M75 76 C75 363.76 75 651.52 75 948 C434.04 948 793.08 948 1163 948 C1163 903.45 1163 858.9 1163 813 C1165.64 813 1168.28 813 1171 813 C1171 759.21 1171 705.42 1171 650 C1168.36 649.67 1165.72 649.34 1163 649 C1163 459.91 1163 270.82 1163 76 C803.96 76 444.92 76 75 76 Z M1187 76 C1187 246.28 1187 416.56 1187 592 C1265.87 592 1344.74 592 1426 592 C1426 594.97 1426 597.94 1426 601 C1447.23528751 601.023327 1468.47057292 601.04097819 1489.70587063 601.05181217 C1499.56506719 601.05697555 1509.4242558 601.06401905 1519.28344727 601.07543945 C1527.87347817 601.08538501 1536.46350331 601.09185312 1545.05353981 601.09408849 C1549.60481195 601.09539582 1554.15606764 601.09848305 1558.70733452 601.10573006 C1562.98604819 601.11248825 1567.26473853 601.11461737 1571.54345703 601.11310768 C1573.11850677 601.1133841 1574.69355723 601.11539041 1576.26860237 601.11920547 C1578.40964252 601.1241396 1580.55059315 601.12299935 1582.69163513 601.12025452 C1583.89273139 601.12117631 1585.09382765 601.1220981 1586.33132076 601.12304783 C1588.92061111 601.30398474 1588.92061111 601.30398474 1590 600 C1590 597.36 1590 594.72 1590 592 C1603.2 592 1616.4 592 1630 592 C1630 421.72 1630 251.44 1630 76 C1483.81 76 1337.62 76 1187 76 Z M1654 76 C1654 248.92 1654 421.84 1654 600 C1656.83775104 601.41887552 1659.21638311 601.12270759 1662.39065552 601.12025452 C1663.05389985 601.12110894 1663.71714418 601.12196337 1664.40048683 601.12284368 C1666.63306648 601.1244968 1668.86557175 601.11897987 1671.09814453 601.11352539 C1672.69447833 601.11324346 1674.29081227 601.11340137 1675.887146 601.1139679 C1680.22987556 601.11425563 1684.57257768 601.1083628 1688.91530085 601.10139394 C1693.45035826 601.09515638 1697.98541625 601.09455628 1702.52047729 601.09336853 C1711.11233045 601.0902564 1719.70417092 601.08204461 1728.29601848 601.07201904 C1738.07580451 601.06085423 1747.85559113 601.05534652 1757.63538194 601.05032361 C1777.75692837 601.0398619 1797.87846339 601.02226474 1818 601 C1818.33 598.03 1818.66 595.06 1819 592 C2045.71 592 2272.42 592 2506 592 C2506 421.72 2506 251.44 2506 76 C2224.84 76 1943.68 76 1654 76 Z M1426 602 C1426 603.98 1426 605.96 1426 608 C1480.12 608 1534.24 608 1590 608 C1590 606.02 1590 604.04 1590 602 C1535.88 602 1481.76 602 1426 602 Z M1655 602 C1655 603.98 1655 605.96 1655 608 C1708.79 608 1762.58 608 1818 608 C1818 606.02 1818 604.04 1818 602 C1764.21 602 1710.42 602 1655 602 Z M1426 609 C1426 611.64 1426 614.28 1426 617 C1347.13 617 1268.26 617 1187 617 C1187 627.89 1187 638.78 1187 650 C1184.69 650 1182.38 650 1180 650 C1180 703.79 1180 757.58 1180 813 C1182.31 813 1184.62 813 1187 813 C1187 987.57 1187 1162.14 1187 1342 C1184.69 1342.33 1182.38 1342.66 1180 1343 C1180 1397.12 1180 1451.24 1180 1507 C1390.54 1507 1601.08 1507 1818 1507 C1818 1421.53 1818 1336.06 1818 1248 C1820.97 1248 1823.94 1248 1827 1248 C1827 1193.88 1827 1139.76 1827 1084 C1824.03 1084 1821.06 1084 1818 1084 C1818 1022.62 1818 961.24 1818 898 C1820.97 898 1823.94 898 1827 898 C1827 843.88 1827 789.76 1827 734 C1824.03 734 1821.06 734 1818 734 C1818 692.75 1818 651.5 1818 609 C1763.88 609 1709.76 609 1654 609 C1654 611.64 1654 614.28 1654 617 C1632.88 617 1611.76 617 1590 617 C1590 614.36 1590 611.72 1590 609 C1535.88 609 1481.76 609 1426 609 Z M1842 617 C1842 655.28 1842 693.56 1842 733 C1838.535 733.495 1838.535 733.495 1835 734 C1834.97666626 755.08763296 1834.95901848 776.17526379 1834.94818783 797.26290703 C1834.94302589 807.0536937 1834.93598511 816.84447237 1834.92456055 826.63525391 C1834.91461062 835.16633075 1834.90814583 843.69740179 1834.90591151 852.22848427 C1834.90460493 856.74793028 1834.90152238 861.26735969 1834.89426994 865.78680038 C1834.88750487 870.03679006 1834.88538404 874.28675624 1834.88689232 878.53675079 C1834.88661621 880.1000926 1834.88461397 881.66343515 1834.88079453 883.22677231 C1834.87584968 885.35432566 1834.87700466 887.48178923 1834.87974548 889.60934448 C1834.87882369 890.8021446 1834.8779019 891.99494473 1834.87695217 893.2238903 C1834.80938016 895.95806814 1834.80938016 895.95806814 1836 898 C1837.98 898 1839.96 898 1842 898 C1842 914.5 1842 931 1842 948 C2061.12 948 2280.24 948 2506 948 C2506.84402036 868.37310819 2506.84402036 868.37310819 2507.12695312 788.7456665 C2507.12417136 784.65707654 2507.12932234 780.56850478 2507.13394356 776.47991753 C2507.13750965 772.44997766 2507.1364363 768.42005019 2507.13381577 764.39011002 C2507.13315636 762.52649046 2507.13393974 760.66286974 2507.13629532 758.79925156 C2507.13879783 756.30607588 2507.13503632 753.8129928 2507.12939453 751.31982422 C2507.13141876 750.58449966 2507.13344299 749.84917511 2507.13552856 749.09156799 C2507.41233825 745.76177581 2507.41233825 745.76177581 2506 743 C2506 701.42 2506 659.84 2506 617 C2286.88 617 2067.76 617 1842 617 Z M1172 650 C1172 703.79 1172 757.58 1172 813 C1174.31 813 1176.62 813 1179 813 C1179 759.21 1179 705.42 1179 650 C1176.69 650 1174.38 650 1172 650 Z M1828 735 C1828 788.79 1828 842.58 1828 898 C1829.98 898 1831.96 898 1834 898 C1834 844.21 1834 790.42 1834 735 C1832.02 735 1830.04 735 1828 735 Z M2508 744 C2508 779.64 2508 815.28 2508 852 C2510.475 851.505 2510.475 851.505 2513 851 C2513 815.69 2513 780.38 2513 744 C2511.35 744 2509.7 744 2508 744 Z M2514 744 C2514 779.64 2514 815.28 2514 852 C2517.3 852 2520.6 852 2524 852 C2524 816.36 2524 780.72 2524 744 C2520.7 744 2517.4 744 2514 744 Z M2525 744 C2525 779.64 2525 815.28 2525 852 C2543.48 852 2561.96 852 2581 852 C2581 816.36 2581 780.72 2581 744 C2562.52 744 2544.04 744 2525 744 Z M75 972 C75 1319.82 75 1667.64 75 2026 C263.43 2026 451.86 2026 646 2026 C646 1897.96 646 1769.92 646 1638 C648.31 1638 650.62 1638 653 1638 C654.53565053 1636.46434947 654.12538802 1635.07225419 654.12584114 1632.93134403 C654.12975276 1631.60825893 654.12975276 1631.60825893 654.13374341 1630.25844485 C654.13151268 1629.27831201 654.12928196 1628.29817917 654.12698364 1627.28834534 C654.12854363 1626.2557633 654.13010362 1625.22318126 654.13171089 1624.15930885 C654.13572578 1620.67072624 654.13252935 1617.18218651 654.12939453 1613.69360352 C654.13074836 1611.20412165 654.13252819 1608.71463998 654.13470459 1606.22515869 C654.13880515 1600.14792462 654.13818548 1594.07070761 654.13529195 1587.99347419 C654.13303797 1583.05596579 654.13272537 1578.11846084 654.13381577 1573.18095207 C654.133969 1572.47949861 654.13412223 1571.77804516 654.13428011 1571.05533553 C654.13459982 1569.63054753 654.13492403 1568.20575952 654.1352527 1566.78097152 C654.13810774 1553.40453198 654.1348202 1540.02809927 654.12945233 1526.65166085 C654.12498525 1515.16417347 654.12575939 1503.67669619 654.13037109 1492.18920898 C654.13571811 1478.8637524 654.13783202 1465.53830182 654.13475883 1452.21284431 C654.13444027 1450.79285077 654.1341259 1449.37285723 654.13381577 1447.95286369 C654.13366149 1447.25412021 654.13350721 1446.55537672 654.13334826 1445.83545919 C654.13248342 1440.90212578 654.13394531 1435.96879616 654.13629532 1431.03546333 C654.13938677 1424.39946561 654.13719743 1417.76348407 654.13140106 1411.12748718 C654.13007367 1408.68530242 654.13046722 1406.24311606 654.13266373 1403.80093193 C654.13537607 1400.48014528 654.131993 1397.15942093 654.12698364 1393.83863831 C654.12921436 1392.86073619 654.13144509 1391.88283407 654.13374341 1390.87529856 C654.12983178 1389.54830184 654.12983178 1389.54830184 654.12584114 1388.19449711 C654.12559761 1387.04361846 654.12559761 1387.04361846 654.12534916 1385.86948973 C654.11472435 1383.90746973 654.11472435 1383.90746973 653 1382 C650.69 1382 648.38 1382 646 1382 C646 1246.7 646 1111.4 646 972 C457.57 972 269.14 972 75 972 Z M670 972 C670 1086.51 670 1201.02 670 1319 C677.26 1319 684.52 1319 692 1319 C692 1321.64 692 1324.28 692 1327 C694.82874776 1328.41437388 697.18811523 1328.12271531 700.35269165 1328.12025452 C701.01185243 1328.12110894 701.67101321 1328.12196337 702.35014856 1328.12284368 C704.56890884 1328.12449676 706.78759428 1328.11897994 709.00634766 1328.11352539 C710.59282937 1328.11324346 712.17931121 1328.11340138 713.76579285 1328.1139679 C718.08166383 1328.11425562 722.3975072 1328.10836285 726.71337175 1328.10139394 C731.22040194 1328.09515632 735.72743271 1328.09455628 740.23446655 1328.09336853 C748.77319579 1328.09025642 757.31191227 1328.08204465 765.85063589 1328.07201904 C775.56996356 1328.06085417 785.28929183 1328.05534651 795.00862432 1328.05032361 C815.00575667 1328.03986194 835.00287753 1328.02226482 855 1328 C855 1325.03 855 1322.06 855 1319 C956.64 1319 1058.28 1319 1163 1319 C1163 1204.49 1163 1089.98 1163 972 C1000.31 972 837.62 972 670 972 Z M1842 972 C1842 1008.96 1842 1045.92 1842 1084 C1840.02 1084 1838.04 1084 1836 1084 C1834.58112448 1086.83775104 1834.87729241 1089.21638311 1834.87974548 1092.39065552 C1834.87889106 1093.05389985 1834.87803663 1093.71714418 1834.87715632 1094.40048683 C1834.8755032 1096.63306648 1834.88102013 1098.86557175 1834.88647461 1101.09814453 C1834.88675654 1102.69447833 1834.88659863 1104.29081227 1834.8860321 1105.887146 C1834.88574437 1110.22987556 1834.8916372 1114.57257768 1834.89860606 1118.91530085 C1834.90484362 1123.45035826 1834.90544372 1127.98541625 1834.90663147 1132.52047729 C1834.9097436 1141.11233045 1834.91795539 1149.70417092 1834.92798096 1158.29601848 C1834.93914577 1168.07580451 1834.94465348 1177.85559113 1834.94967639 1187.63538194 C1834.9601381 1207.75692837 1834.97773526 1227.87846339 1835 1248 C1837.31 1248.33 1839.62 1248.66 1842 1249 C1842 1505.41 1842 1761.82 1842 2026 C2061.12 2026 2280.24 2026 2506 2026 C2506.39890223 1859.21438773 2506.39890223 1859.21438773 2506.75875139 1692.42868853 C2506.76880002 1687.40423851 2506.77886648 1682.37978853 2506.78894758 1677.35533857 C2506.91849937 1612.68590883 2507.0419651 1548.01647761 2507.09761095 1483.34693575 C2507.10064406 1479.84360563 2507.10395076 1476.34027588 2507.10747668 1472.83694622 C2507.27089696 1305.889334 2506.55649059 1138.94717814 2506 972 C2286.88 972 2067.76 972 1842 972 Z M1828 1084 C1828 1138.12 1828 1192.24 1828 1248 C1829.98 1248 1831.96 1248 1834 1248 C1834 1193.88 1834 1139.76 1834 1084 C1832.02 1084 1830.04 1084 1828 1084 Z M2508 1272 C2508 1316.55 2508 1361.1 2508 1407 C2511.3 1407 2514.6 1407 2518 1407 C2518 1362.45 2518 1317.9 2518 1272 C2514.7 1272 2511.4 1272 2508 1272 Z M2519 1272 C2519 1323.81 2519 1375.62 2519 1429 C2522.3 1429 2525.6 1429 2529 1429 C2529 1377.19 2529 1325.38 2529 1272 C2525.7 1272 2522.4 1272 2519 1272 Z M2530 1272 C2530 1324.14 2530 1376.28 2530 1430 C2526.37 1430 2522.74 1430 2519 1430 C2519 1474.22 2519 1518.44 2519 1564 C2539.46 1564 2559.92 1564 2581 1564 C2581 1467.64 2581 1371.28 2581 1272 C2564.17 1272 2547.34 1272 2530 1272 Z M692 1329 C692 1330.98 692 1332.96 692 1335 C745.79 1335 799.58 1335 855 1335 C855 1333.02 855 1331.04 855 1329 C801.21 1329 747.42 1329 692 1329 Z M692 1336 C692 1338.31 692 1340.62 692 1343 C684.74 1343 677.48 1343 670 1343 C670 1355.87 670 1368.74 670 1382 C667.69 1382 665.38 1382 663 1382 C663 1466.48 663 1550.96 663 1638 C665.31 1638 667.62 1638 670 1638 C670 1766.04 670 1894.08 670 2026 C720.17313886 2026.8341557 720.17313886 2026.8341557 770.34375 2027.1328125 C772.56028961 2027.13321438 774.77682807 2027.13435288 776.99336737 2027.13556135 C784.98237945 2027.13986217 792.97137315 2027.13704556 800.96038312 2027.13056505 C806.92890121 2027.12578786 812.89741646 2027.12348698 818.86593628 2027.12231445 C900.77869878 2027.10325096 982.69096951 2026.75394737 1079.82421875 2026.35595703 C1081.11371807 2026.35062824 1082.40321739 2026.34529945 1083.73179245 2026.33980918 C1110.15454486 2026.23032727 1136.57726833 2026.11446376 1163 2026 C1163 1963.96 1163 1901.92 1163 1838 C1165.64 1838 1168.28 1838 1171 1838 C1171 1784.21 1171 1730.42 1171 1675 C1168.36 1675 1165.72 1675 1163 1675 C1163 1619.56 1163 1564.12 1163 1507 C1165.64 1507 1168.28 1507 1171 1507 C1171 1452.88 1171 1398.76 1171 1343 C1066.72 1343 962.44 1343 855 1343 C855 1340.69 855 1338.38 855 1336 C801.21 1336 747.42 1336 692 1336 Z M1172 1344 C1172 1397.79 1172 1451.58 1172 1507 C1173.98 1507 1175.96 1507 1178 1507 C1179.10204946 1499.01084223 1179.14172 1491.11045061 1179.12939453 1483.05688477 C1179.13075165 1481.56128395 1179.13253332 1480.06568347 1179.13470459 1478.57008362 C1179.13923925 1474.53341252 1179.1375065 1470.49676716 1179.1343255 1466.46009564 C1179.13178462 1462.23030865 1179.13414394 1458.00052378 1179.13571167 1453.77073669 C1179.13752693 1446.67698777 1179.13514249 1439.58324929 1179.13037109 1432.48950195 C1179.12491501 1424.2829116 1179.12670345 1416.07634604 1179.1321975 1407.86975628 C1179.13672947 1400.81821974 1179.13737921 1393.76669068 1179.13475883 1386.71515316 C1179.13319841 1382.50548231 1179.13299619 1378.29582313 1179.13629532 1374.08615303 C1179.13917574 1370.13562158 1179.13719521 1366.1851223 1179.13140106 1362.23459435 C1179.13007501 1360.78251321 1179.13046497 1359.33042938 1179.13266373 1357.8783493 C1179.13538088 1355.9023854 1179.13137545 1353.9264156 1179.12698364 1351.95045471 C1179.12660662 1350.8430874 1179.12622959 1349.73572008 1179.12584114 1348.59479618 C1179.17557926 1346.0150235 1179.17557926 1346.0150235 1178 1344 C1176.02 1344 1174.04 1344 1172 1344 Z M655 1382 C655 1424.24 655 1466.48 655 1510 C657.31 1510 659.62 1510 662 1510 C662 1467.76 662 1425.52 662 1382 C659.69 1382 657.38 1382 655 1382 Z M2 1384 C2 1553.29 2 1722.58 2 1897 C18.83 1897 35.66 1897 53 1897 C53 1808.89 53 1720.78 53 1630 C56.63 1630 60.26 1630 64 1630 C64 1548.82 64 1467.64 64 1384 C43.54 1384 23.08 1384 2 1384 Z M65 1384 C65 1472.44 65 1560.88 65 1652 C68.3 1652 71.6 1652 75 1652 C75 1563.56 75 1475.12 75 1384 C71.7 1384 68.4 1384 65 1384 Z M2508 1408 C2508 1459.48 2508 1510.96 2508 1564 C2511.3 1564 2514.6 1564 2518 1564 C2518 1512.52 2518 1461.04 2518 1408 C2514.7 1408 2511.4 1408 2508 1408 Z M655 1511 C655 1552.91 655 1594.82 655 1638 C657.31 1638 659.62 1638 662 1638 C662 1596.09 662 1554.18 662 1511 C659.69 1511 657.38 1511 655 1511 Z M1187 1531 C1187 1578.52 1187 1626.04 1187 1675 C1184.69 1675 1182.38 1675 1180 1675 C1180 1728.79 1180 1782.58 1180 1838 C1182.31 1838.33 1184.62 1838.66 1187 1839 C1187 1900.71 1187 1962.42 1187 2026 C1233.35887473 2026.18120516 1233.35887473 2026.18120516 1279.71777344 2026.35595703 C1280.48665262 2026.3587928 1281.25553181 2026.36162856 1282.04771036 2026.36455026 C1406.88500963 2026.83049366 1406.88500963 2026.83049366 1589.26707762 2027.12283063 C1597.74458531 2027.12422173 1606.22208946 2027.12816117 1614.69959486 2027.13462543 C1682.47376476 2027.17946209 1750.22415794 2026.56479868 1818 2026 C1818 1862.65 1818 1699.3 1818 1531 C1609.77 1531 1401.54 1531 1187 1531 Z M54 1631 C54 1718.78 54 1806.56 54 1897 C57.3 1897 60.6 1897 64 1897 C64 1809.22 64 1721.44 64 1631 C60.7 1631 57.4 1631 54 1631 Z M65 1653 C65 1733.52 65 1814.04 65 1897 C68.3 1897 71.6 1897 75 1897 C75 1816.48 75 1735.96 75 1653 C71.7 1653 68.4 1653 65 1653 Z M1172 1675 C1172 1728.79 1172 1782.58 1172 1838 C1173.98 1838 1175.96 1838 1178 1838 C1179.07597347 1834.49905419 1179.12577903 1831.26815637 1179.12698364 1827.61680603 C1179.12980347 1826.30303482 1179.13262329 1824.98926361 1179.13552856 1823.63568115 C1179.13358431 1822.18151842 1179.13153614 1820.72735582 1179.12939453 1819.27319336 C1179.13074967 1817.74054421 1179.13253024 1816.20789539 1179.13470459 1814.67524719 C1179.13926513 1810.51425019 1179.13749511 1806.35327797 1179.1343255 1802.19228053 C1179.13179526 1797.84014618 1179.13414126 1793.48801395 1179.13571167 1789.13587952 C1179.13753122 1781.82813129 1179.13513245 1774.52039317 1179.13037109 1767.21264648 C1179.12492685 1758.7590844 1179.12669317 1750.30554642 1179.1321975 1741.85198492 C1179.13673229 1734.59756289 1179.13737744 1727.34314813 1179.13475883 1720.08872515 C1179.13319834 1715.75431044 1179.13299612 1711.41990707 1179.13629532 1707.08549309 C1179.13917939 1703.01190878 1179.13718842 1698.93835564 1179.13140106 1694.8647747 C1179.13007644 1693.36796623 1179.13046255 1691.87115513 1179.13266373 1690.37434769 C1179.13538679 1688.33496951 1179.13137029 1686.29558561 1179.12698364 1684.25621033 C1179.12660662 1683.11377334 1179.12622959 1681.97133635 1179.12584114 1680.79428005 C1179.12370913 1677.91574966 1179.12370913 1677.91574966 1178 1675 C1176.02 1675 1174.04 1675 1172 1675 Z M723 2028 C723 2029.65 723 2031.3 723 2033 C727.97884594 2034.61515261 732.15412881 2035.24949629 737.44076538 2035.24723816 C738.1565789 2035.24965257 738.87239242 2035.25206699 739.60989726 2035.25455457 C741.99051474 2035.26015679 744.37085973 2035.25155523 746.75146484 2035.24291992 C748.46513949 2035.24399362 750.17881378 2035.24593359 751.89248657 2035.24867249 C756.53252317 2035.25350784 761.17246316 2035.24588311 765.81248808 2035.23571944 C770.66735947 2035.22692459 775.52222798 2035.22869662 780.37710571 2035.2290802 C788.52274184 2035.22814467 796.66834064 2035.21947286 804.81396484 2035.20581055 C814.24295055 2035.19005458 823.67189546 2035.18481359 833.10089338 2035.1855461 C842.1666091 2035.18615535 851.2323115 2035.18106138 860.29802322 2035.17275429 C864.16006194 2035.16921621 868.02209594 2035.16739031 871.8841362 2035.16686058 C876.42313771 2035.16585968 880.96210469 2035.15978392 885.50109482 2035.14969444 C887.17128793 2035.14676227 888.84148502 2035.14554551 890.5116806 2035.14612198 C892.78153651 2035.14660916 895.05129419 2035.14099202 897.32113647 2035.13371277 C898.59425879 2035.13203692 899.8673811 2035.13036108 901.17908287 2035.12863445 C903.90266385 2035.32205682 903.90266385 2035.32205682 905 2034 C905 2032.02 905 2030.04 905 2028 C844.94 2028 784.88 2028 723 2028 Z M1480 2028 C1480 2031.3 1480 2034.6 1480 2038 C1519.6 2038 1559.2 2038 1600 2038 C1600 2034.7 1600 2031.4 1600 2028 C1560.4 2028 1520.8 2028 1480 2028 Z M1601 2028 C1601 2031.3 1601 2034.6 1601 2038 C1633.01 2038 1665.02 2038 1698 2038 C1698 2034.7 1698 2031.4 1698 2028 C1665.99 2028 1633.98 2028 1601 2028 Z M723 2036 C723 2037.98 723 2039.96 723 2042 C783.06 2042 843.12 2042 905 2042 C905 2040.02 905 2038.04 905 2036 C844.94 2036 784.88 2036 723 2036 Z M1480 2039 C1480 2059.46 1480 2079.92 1480 2101 C1551.94 2101 1623.88 2101 1698 2101 C1698 2084.17 1698 2067.34 1698 2050 C1658.4 2050 1618.8 2050 1578 2050 C1578 2046.37 1578 2042.74 1578 2039 C1545.66 2039 1513.32 2039 1480 2039 Z M1579 2039 C1579 2042.3 1579 2045.6 1579 2049 C1618.27 2049 1657.54 2049 1698 2049 C1698 2045.7 1698 2042.4 1698 2039 C1658.73 2039 1619.46 2039 1579 2039 Z M723 2043 C723 2062.14 723 2081.28 723 2101 C783.06 2101 843.12 2101 905 2101 C905 2081.86 905 2062.72 905 2043 C844.94 2043 784.88 2043 723 2043 Z " transform="translate(209,449)" style="fill: #000000;"/></svg>